 <svg width="12" height="13" viewBox="0 0 12 13" fill="none" xmlns="http://www.w3.org/2000/svg">
    <g clip-path="url(#clip0_79_5593)">
        <path d="M11.8125 6.5C11.8125 9.71016 9.21016 12.3125 6 12.3125C2.78984 12.3125 0.1875 9.71016 0.1875 6.5C0.1875 3.28984 2.78984 0.6875 6 0.6875C9.21016 0.6875 11.8125 3.28984 11.8125 6.5ZM5.32767 9.57767L9.64017 5.26517C9.78661 5.11873 9.78661 4.88129 9.64017 4.73485L9.10985 4.20453C8.96341 4.05807 8.72597 4.05807 8.57951 4.20453L5.0625 7.72152L3.42049 6.07951C3.27405 5.93307 3.03661 5.93307 2.89015 6.07951L2.35983 6.60983C2.21339 6.75627 2.21339 6.99371 2.35983 7.14015L4.79733 9.57765C4.94379 9.72411 5.18121 9.72411 5.32767 9.57767Z" fill="#59B058"/>
    </g>
    <defs>
        <clipPath id="clip0_79_5593">
            <rect width="12" height="12" fill="white" transform="translate(0 0.5)"/>
        </clipPath>
    </defs>
</svg>     