<svg width="20" height="20" viewBox="0 0 20 20" fill="none" xmlns="http://www.w3.org/2000/svg">
    <mask id="mask0_exclamation_red" style="mask-type:luminance" maskUnits="userSpaceOnUse" x="1" y="1" width="19" height="19">
        <path d="M10.3353 18.6667C11.4298 18.6681 12.5139 18.4532 13.5251 18.0343C14.5364 17.6154 15.4548 17.0008 16.2278 16.2258C17.0028 15.4529 17.6174 14.5344 18.0363 13.5232C18.4551 12.5119 18.67 11.4279 18.6686 10.3333C18.67 9.23879 18.4551 8.15475 18.0362 7.14352C17.6173 6.13229 17.0028 5.2138 16.2278 4.44084C15.4548 3.66585 14.5364 3.05126 13.5251 2.63238C12.5139 2.2135 11.4298 1.99859 10.3353 2.00001C9.24074 1.99861 8.1567 2.21353 7.14547 2.63241C6.13424 3.05129 5.21575 3.66587 4.44279 4.44084C3.66782 5.2138 3.05324 6.13229 2.63436 7.14352C2.21548 8.15475 2.00056 9.23879 2.00196 10.3333C2.00054 11.4279 2.21545 12.5119 2.63433 13.5232C3.05321 14.5344 3.6678 15.4529 4.44279 16.2258C5.21575 17.0008 6.13424 17.6154 7.14547 18.0343C8.1567 18.4532 9.24074 18.6681 10.3353 18.6667Z" fill="white" stroke="white" stroke-width="1.85185" stroke-linejoin="round"/>
        
        <path d="M9 5 H11 V12 H9 Z" fill="black"/> 
        <circle cx="10" cy="14.5" r="1" fill="black"/> 
    </mask>
    <g mask="url(#mask0_exclamation_red)">
        <path d="M0 0H20V20H0V0Z" fill="#E53935"/> 
    </g>
</svg>