<?xml version="1.0" encoding="utf-8"?>
<!-- Designed by Vexels.com - 2020 All Rights Reserved - https://vexels.com/terms-and-conditions/  -->
<svg version="1.1" id="Layer_1" xmlns="http://www.w3.org/2000/svg" xmlns:xlink="http://www.w3.org/1999/xlink" x="0px" y="0px"
	 viewBox="0 0 1200 1200" enable-background="new 0 0 1200 1200" xml:space="preserve">
<g>
	<path fill="#D3E4ED" d="M58.725,759.405l-7.266,2.811c-1.778,0.688-1.979,3.123-0.339,4.094l539.877,320.383
		c13.525,7.999,30.319,8.057,43.898,0.15l513.411-298.931c2.225-1.295,2.265-4.495,0.073-5.846l-158.063-95.024L94.252,742.021
		L58.725,759.405z"/>
	<path fill="#969593" d="M1006.385,675.136v16.799c0,0-0.069,0.232-0.236,0.586c-0.391,1.352-1.279,2.577-2.663,3.375
		l-507.205,291.58c-12.207,7.015-27.231,6.983-39.405-0.09L60.805,757.912c-0.513-0.301-0.904-0.7-1.177-1.16
		c-0.269-0.456-0.419-0.973-0.444-1.49v-0.004c-0.008-0.11-0.008-0.224,0-0.338l-0.004-15.501c0.028,1.067,0.57,2.121,1.624,2.736
		l396.07,229.476c12.174,7.072,27.198,7.105,39.405,0.09l507.205-291.58C1005.416,679.033,1006.385,677.082,1006.385,675.136z"/>
	<path fill="#E8E5DE" d="M60.819,736.493l520.949-299.259c5.565-3.197,12.411-3.191,17.971,0.016l403.754,232.886
		c3.855,2.223,3.851,7.788-0.007,10.006L496.28,971.721c-12.206,7.017-27.23,6.983-39.404-0.089L60.805,742.156
		C58.63,740.892,58.637,737.747,60.819,736.493z"/>
	<path fill="#969593" d="M309.117,831.676l449.07-258.551c4.607-2.647,10.275-2.642,14.878,0.013l174.267,99.447
		c3.191,1.841,3.188,6.448-0.006,8.284L509.634,933.062c-10.105,5.809-22.543,5.781-32.622-0.074l-167.906-96.624
		C307.304,835.317,307.311,832.714,309.117,831.676z"/>
	<path fill="#969593" d="M301.467,628.998l163.692-93.582c3.79-2.177,8.451-2.173,12.237,0.011l143.333,81.794
		c2.625,1.514,2.622,5.303-0.005,6.813l-154.334,88.353c-8.312,4.778-18.542,4.755-26.832-0.061l-138.101-79.472
		C299.976,631.993,299.981,629.851,301.467,628.998z"/>
	<g>
		<path fill="#31353E" d="M1005.708,116.34c-3.44-1.669-7.663-1.779-11.466,0.37L510.188,389.412
			c-19.495,11.009-31.551,31.665-31.551,54.055v542.078c0,0.692,0.346,1.266,0.847,1.612l-12.646-8.257
			c-0.057-0.033-0.11-0.069-0.159-0.106h-0.004c-0.391-0.289-0.66-0.749-0.66-1.307V434.827c0-22.39,12.056-43.045,31.551-54.055
			l482.026-271.556c4.295-2.427,9.77-2.647,13.406-0.322h0.008l0.057,0.041C993.34,109.114,1005.708,116.34,1005.708,116.34z"/>
		<path fill="#E8E5DE" d="M1005.87,687.168L481.562,987.266c-1.312,0.727-2.922-0.222-2.922-1.722V443.466
			c0-22.388,12.055-43.042,31.549-54.052L994.243,116.71c8.28-4.677,18.521,1.35,18.453,10.859l-3.287,553.641
			C1009.391,683.689,1008.038,685.966,1005.87,687.168z"/>
		
			<ellipse transform="matrix(0.4147 -0.91 0.91 0.4147 -43.9886 1034.2189)" fill="#969593" cx="781.956" cy="551.304" rx="111.69" ry="62.924"/>
	</g>
</g>
</svg>
