<svg width="20" height="20" viewBox="0 0 20 20" fill="none" xmlns="http://www.w3.org/2000/svg">
    <path d="M18.7798 9.36398C17.106 6.09824 13.7924 3.88867 9.99826 3.88867C6.20412 3.88867 2.88961 6.09978 1.21677 9.36429C1.14616 9.50395 1.10938 9.65826 1.10938 9.81475C1.10937 9.97125 1.14616 10.1256 1.21677 10.2652C2.89053 13.531 6.20412 15.7405 9.99826 15.7405C13.7924 15.7405 17.1069 13.5294 18.7798 10.2649C18.8504 10.1252 18.8872 9.97094 18.8872 9.81444C18.8872 9.65795 18.8504 9.50364 18.7798 9.36398ZM9.99826 14.259C9.11923 14.259 8.25994 13.9984 7.52906 13.51C6.79817 13.0217 6.22851 12.3275 5.89212 11.5154C5.55573 10.7033 5.46772 9.80967 5.63921 8.94753C5.8107 8.08539 6.23399 7.29347 6.85556 6.6719C7.47713 6.05033 8.26905 5.62704 9.13119 5.45555C9.99333 5.28406 10.887 5.37208 11.6991 5.70847C12.5112 6.04486 13.2053 6.61451 13.6937 7.3454C14.1821 8.07628 14.4427 8.93557 14.4427 9.8146C14.443 10.3983 14.3282 10.9764 14.105 11.5157C13.8817 12.0551 13.5544 12.5452 13.1416 12.9579C12.7288 13.3707 12.2388 13.6981 11.6994 13.9213C11.1601 14.1446 10.582 14.2593 9.99826 14.259ZM9.99826 6.85163C9.7338 6.85533 9.47104 6.89468 9.21709 6.96861C9.42642 7.25308 9.52687 7.60314 9.50023 7.95532C9.47358 8.3075 9.32161 8.63847 9.07187 8.88821C8.82213 9.13795 8.49116 9.28992 8.13898 9.31656C7.7868 9.3432 7.43674 9.24275 7.15227 9.03342C6.99028 9.63021 7.01953 10.2628 7.23588 10.8421C7.45223 11.4214 7.8448 11.9182 8.35833 12.2627C8.87185 12.6072 9.48049 12.782 10.0986 12.7625C10.7166 12.743 11.313 12.5301 11.8038 12.1539C12.2945 11.7777 12.655 11.257 12.8343 10.6652C13.0137 10.0734 13.0029 9.44027 12.8036 8.8549C12.6043 8.26953 12.2264 7.7614 11.7232 7.40204C11.2199 7.04268 10.6166 6.85018 9.99826 6.85163Z" fill="#838383"/>
</svg>  