<svg width="12" height="13" viewBox="0 0 12 13" fill="none" xmlns="http://www.w3.org/2000/svg">
    <g clip-path="url(#clip0_79_6039)">
        <path d="M11.8649 10.3334C12.2495 11 11.7668 11.8332 10.9988 11.8332H1.00113C0.23161 11.8332 -0.248848 10.9987 0.134943 10.3334L5.13382 1.66619C5.51855 0.999337 6.48215 1.00055 6.86619 1.66619L11.8649 10.3334ZM6.00001 8.5415C5.47074 8.5415 5.04167 8.97057 5.04167 9.49984C5.04167 10.0291 5.47074 10.4582 6.00001 10.4582C6.52928 10.4582 6.95834 10.0291 6.95834 9.49984C6.95834 8.97057 6.52928 8.5415 6.00001 8.5415ZM5.09015 5.0968L5.24469 7.93013C5.25192 8.06271 5.36155 8.1665 5.49432 8.1665H6.50569C6.63846 8.1665 6.74809 8.06271 6.75532 7.93013L6.90986 5.0968C6.91767 4.95359 6.80365 4.83317 6.66024 4.83317H5.33976C5.19634 4.83317 5.08234 4.95359 5.09015 5.0968Z" fill="#005B8A"/>
    </g>
    <defs>
        <clipPath id="clip0_79_6039">
            <rect width="12" height="12" fill="white" transform="translate(0 0.5)"/>
        </clipPath>
    </defs>
</svg>